<svg width="20" height="20" viewBox="0 0 20 20" fill="none" xmlns="http://www.w3.org/2000/svg">
<path d="M10 18.025C9.45 18.025 8.97917 17.825 8.5875 17.425C8.19583 17.025 8 16.55 8 16C8 15.45 8.19583 14.9792 8.5875 14.5875C8.97917 14.1958 9.45 14 10 14L10.6 13.425C10.7333 13.2917 10.8875 13.1875 11.0625 13.1125C11.2375 13.0375 11.4167 13 11.6 13C11.9833 13 12.3125 13.1417 12.5875 13.425C12.8625 13.7083 13 14.0417 13 14.425V14.85C13 15.1833 13.1083 15.4583 13.325 15.675C13.5417 15.8917 13.8167 16 14.15 16C14.4 16 14.625 15.925 14.825 15.775C15.025 15.625 15.1667 15.4333 15.25 15.2L15.55 14.375C15.7 13.975 15.9417 13.6458 16.275 13.3875C16.6083 13.1292 16.9917 13 17.425 13C17.6083 12.5333 17.7542 12.05 17.8625 11.55C17.9708 11.05 18.025 10.5333 18.025 10C18.025 8.51667 17.6542 7.1625 16.9125 5.9375C16.1708 4.7125 15.2 3.75 14 3.05V4C14 4.55 13.8042 5.02083 13.4125 5.4125C13.0208 5.80417 12.55 6 12 6H11V8C11 8.28333 10.9042 8.52083 10.7125 8.7125C10.5208 8.90417 10.2833 9 10 9H9V10.7C9 11.0667 8.875 11.375 8.625 11.625C8.375 11.875 8.06667 12 7.7 12C7.46667 12 7.25417 11.95 7.0625 11.85C6.87083 11.75 6.71667 11.6083 6.6 11.425L5 9H4V10C4 10.5167 3.825 10.9583 3.475 11.325C3.125 11.6917 2.70833 11.9083 2.225 11.975C2.65833 13.7083 3.59583 15.15 5.0375 16.3C6.47917 17.45 8.13333 18.025 10 18.025ZM12 12C11.7167 12 11.4792 11.9042 11.2875 11.7125C11.0958 11.5208 11 11.2833 11 11C11 10.7167 11.0958 10.4792 11.2875 10.2875C11.4792 10.0958 11.7167 10 12 10H13C13.2833 10 13.5208 10.0958 13.7125 10.2875C13.9042 10.4792 14 10.7167 14 11C14 11.2833 13.9042 11.5208 13.7125 11.7125C13.5208 11.9042 13.2833 12 13 12H12ZM14.325 9C13.9917 9 13.7292 8.87083 13.5375 8.6125C13.3458 8.35417 13.3 8.06667 13.4 7.75L13.775 6.65C13.8417 6.45 13.9583 6.29167 14.125 6.175C14.2917 6.05833 14.475 6 14.675 6C15.0083 6 15.2708 6.12917 15.4625 6.3875C15.6542 6.64583 15.7 6.93333 15.6 7.25L15.225 8.35C15.1583 8.55 15.0417 8.70833 14.875 8.825C14.7083 8.94167 14.525 9 14.325 9ZM10 20C8.61667 20 7.31667 19.7375 6.1 19.2125C4.88333 18.6875 3.825 17.975 2.925 17.075C2.025 16.175 1.3125 15.1167 0.7875 13.9C0.2625 12.6833 0 11.3833 0 10C0 8.61667 0.2625 7.31667 0.7875 6.1C1.3125 4.88333 2.025 3.825 2.925 2.925C3.825 2.025 4.88333 1.3125 6.1 0.7875C7.31667 0.2625 8.61667 0 10 0C11.3833 0 12.6833 0.2625 13.9 0.7875C15.1167 1.3125 16.175 2.025 17.075 2.925C17.975 3.825 18.6875 4.88333 19.2125 6.1C19.7375 7.31667 20 8.61667 20 10C20 11.3833 19.7375 12.6833 19.2125 13.9C18.6875 15.1167 17.975 16.175 17.075 17.075C16.175 17.975 15.1167 18.6875 13.9 19.2125C12.6833 19.7375 11.3833 20 10 20Z" fill="url(#paint0_linear_61_3)"/>
<defs>
<linearGradient id="paint0_linear_61_3" x1="10" y1="0" x2="10" y2="20" gradientUnits="userSpaceOnUse">
<stop stop-color="#83BCFC"/>
<stop offset="1" stop-color="#315A96"/>
</linearGradient>
</defs>
</svg>
