<svg width="406" height="40" viewBox="0 0 406 40" fill="none" xmlns="http://www.w3.org/2000/svg">
<path d="M0.687988 40V5.43997H7.64799L28.864 30.688V5.43997H35.248V40H28.288L7.02399 14.704V40H0.687988Z" fill="#010912"/>
<path d="M47.0575 40C45.8415 40 44.7215 39.696 43.6975 39.088C42.7055 38.48 41.9055 37.68 41.2975 36.688C40.7215 35.696 40.4335 34.592 40.4335 33.376V22.912H62.4175V19.024C62.4175 18.864 62.3535 18.736 62.2255 18.64C62.1295 18.512 62.0015 18.448 61.8415 18.448H40.4335V12.16H62.0815C63.2975 12.16 64.4015 12.464 65.3935 13.072C66.4175 13.68 67.2175 14.48 67.7935 15.472C68.4015 16.464 68.7055 17.568 68.7055 18.784V40H47.0575ZM47.2975 33.712H62.4175V28.576H46.7215V33.136C46.7215 33.296 46.7695 33.44 46.8655 33.568C46.9935 33.664 47.1375 33.712 47.2975 33.712Z" fill="#010912"/>
<path d="M80.4336 40C79.2176 40 78.1136 39.696 77.1216 39.088C76.1296 38.48 75.3296 37.68 74.7216 36.688C74.1136 35.696 73.8096 34.592 73.8096 33.376V3.61597H80.0976V12.16H90.9456V18.448H80.0976V33.136C80.0976 33.296 80.1456 33.44 80.2416 33.568C80.3696 33.664 80.5136 33.712 80.6736 33.712H90.9456V40H80.4336Z" fill="#010912"/>
<path d="M101.432 40C100.216 40 99.0965 39.696 98.0725 39.088C97.0805 38.48 96.2805 37.68 95.6725 36.688C95.0965 35.696 94.8085 34.592 94.8085 33.376V22.912H116.792V19.024C116.792 18.864 116.728 18.736 116.6 18.64C116.504 18.512 116.376 18.448 116.216 18.448H94.8085V12.16H116.456C117.672 12.16 118.776 12.464 119.768 13.072C120.792 13.68 121.592 14.48 122.168 15.472C122.776 16.464 123.08 17.568 123.08 18.784V40H101.432ZM101.672 33.712H116.792V28.576H101.096V33.136C101.096 33.296 101.144 33.44 101.24 33.568C101.368 33.664 101.512 33.712 101.672 33.712ZM106.424 9.27997L108.68 0.495972H115.016L112.856 9.27997H106.424Z" fill="#010912"/>
<path d="M134.761 40C133.545 40 132.441 39.696 131.449 39.088C130.457 38.48 129.657 37.68 129.049 36.688C128.441 35.696 128.137 34.592 128.137 33.376V2.99197H134.473V33.136C134.473 33.296 134.521 33.44 134.617 33.568C134.745 33.664 134.889 33.712 135.049 33.712H140.377V40H134.761Z" fill="#010912"/>
<path d="M144.777 40V12.16H151.065V40H144.777ZM144.777 9.37597V3.03997H151.065V9.37597H144.777Z" fill="#010912"/>
<path d="M161.526 40C160.31 40 159.19 39.696 158.166 39.088C157.174 38.48 156.374 37.68 155.766 36.688C155.19 35.696 154.902 34.592 154.902 33.376V22.912H176.886V19.024C176.886 18.864 176.822 18.736 176.694 18.64C176.598 18.512 176.47 18.448 176.31 18.448H154.902V12.16H176.55C177.766 12.16 178.87 12.464 179.862 13.072C180.886 13.68 181.686 14.48 182.262 15.472C182.87 16.464 183.174 17.568 183.174 18.784V40H161.526ZM161.766 33.712H176.886V28.576H161.19V33.136C161.19 33.296 161.238 33.44 161.334 33.568C161.462 33.664 161.606 33.712 161.766 33.712Z" fill="#010912"/>
<path d="M203.238 40V5.43997H229.734C230.95 5.43997 232.054 5.74397 233.046 6.35197C234.07 6.95997 234.886 7.77597 235.494 8.79997C236.102 9.79197 236.406 10.896 236.406 12.112V18.88C236.406 19.296 236.374 19.696 236.31 20.08C236.246 20.464 236.134 20.832 235.974 21.184C236.518 21.92 236.95 22.688 237.27 23.488C237.622 24.288 237.798 25.088 237.798 25.888V33.328C237.798 34.544 237.494 35.664 236.886 36.688C236.278 37.68 235.462 38.48 234.438 39.088C233.414 39.696 232.294 40 231.078 40H203.238ZM210.15 33.616H230.79C230.95 33.616 231.094 33.568 231.222 33.472C231.35 33.344 231.414 33.2 231.414 33.04V26.176C231.414 26.016 231.35 25.888 231.222 25.792C231.094 25.664 230.95 25.6 230.79 25.6H210.15C209.99 25.6 209.846 25.664 209.718 25.792C209.622 25.888 209.574 26.016 209.574 26.176V33.04C209.574 33.2 209.622 33.344 209.718 33.472C209.846 33.568 209.99 33.616 210.15 33.616ZM210.15 19.216H229.446C229.606 19.216 229.734 19.168 229.83 19.072C229.926 18.944 229.974 18.8 229.974 18.64V12.4C229.974 12.24 229.926 12.112 229.83 12.016C229.734 11.888 229.606 11.824 229.446 11.824H210.15C209.99 11.824 209.846 11.888 209.718 12.016C209.622 12.112 209.574 12.24 209.574 12.4V18.64C209.574 18.8 209.622 18.944 209.718 19.072C209.846 19.168 209.99 19.216 210.15 19.216Z" fill="#010912"/>
<path d="M242.84 40V18.784C242.84 17.568 243.144 16.464 243.752 15.472C244.36 14.48 245.16 13.68 246.152 13.072C247.176 12.464 248.28 12.16 249.464 12.16H264.92V18.448H249.704C249.544 18.448 249.4 18.512 249.272 18.64C249.176 18.736 249.128 18.864 249.128 19.024V40H242.84Z" fill="#010912"/>
<path d="M275.246 40C274.03 40 272.91 39.696 271.886 39.088C270.894 38.48 270.094 37.68 269.486 36.688C268.91 35.696 268.622 34.592 268.622 33.376V12.16H274.91V33.136C274.91 33.296 274.958 33.44 275.054 33.568C275.182 33.664 275.326 33.712 275.486 33.712H290.03C290.19 33.712 290.318 33.664 290.414 33.568C290.542 33.44 290.606 33.296 290.606 33.136V12.16H296.894V33.376C296.894 34.592 296.59 35.696 295.982 36.688C295.406 37.68 294.622 38.48 293.63 39.088C292.638 39.696 291.518 40 290.27 40H275.246Z" fill="#010912"/>
<path d="M302.092 40V12.16H323.74C324.956 12.16 326.06 12.464 327.052 13.072C328.076 13.68 328.876 14.48 329.452 15.472C330.06 16.464 330.364 17.568 330.364 18.784V40H324.076V19.024C324.076 18.864 324.012 18.736 323.884 18.64C323.788 18.512 323.66 18.448 323.5 18.448H308.956C308.796 18.448 308.652 18.512 308.524 18.64C308.428 18.736 308.38 18.864 308.38 19.024V40H302.092Z" fill="#010912"/>
<path d="M341.009 40C339.793 40 338.689 39.696 337.697 39.088C336.705 38.48 335.905 37.68 335.297 36.688C334.689 35.696 334.385 34.592 334.385 33.376V18.784C334.385 17.568 334.689 16.464 335.297 15.472C335.905 14.48 336.705 13.68 337.697 13.072C338.689 12.464 339.793 12.16 341.009 12.16H356.033C357.249 12.16 358.353 12.464 359.345 13.072C360.369 13.68 361.169 14.48 361.745 15.472C362.353 16.464 362.658 17.568 362.658 18.784V29.248H340.673V33.136C340.673 33.296 340.721 33.44 340.817 33.568C340.945 33.664 341.089 33.712 341.249 33.712H362.658V40H341.009ZM340.673 23.584H356.369V19.024C356.369 18.864 356.305 18.736 356.177 18.64C356.081 18.512 355.953 18.448 355.793 18.448H341.249C341.089 18.448 340.945 18.512 340.817 18.64C340.721 18.736 340.673 18.864 340.673 19.024V23.584Z" fill="#010912"/>
<path d="M373.167 40C371.951 40 370.847 39.696 369.855 39.088C368.863 38.48 368.063 37.68 367.455 36.688C366.847 35.696 366.543 34.592 366.543 33.376V2.99197H372.879V33.136C372.879 33.296 372.927 33.44 373.023 33.568C373.151 33.664 373.295 33.712 373.455 33.712H378.783V40H373.167Z" fill="#010912"/>
<path d="M389.151 40C387.935 40 386.831 39.696 385.839 39.088C384.847 38.48 384.047 37.68 383.439 36.688C382.831 35.696 382.527 34.592 382.527 33.376V2.99197H388.863V33.136C388.863 33.296 388.911 33.44 389.007 33.568C389.135 33.664 389.279 33.712 389.439 33.712H394.767V40H389.151Z" fill="#010912"/>
<path d="M399.168 40V12.16H405.456V40H399.168ZM399.168 9.37597V3.03997H405.456V9.37597H399.168Z" fill="#010912"/>
</svg>
